<svg xmlns="http://www.w3.org/2000/svg" viewBox="0 0 17.992 17.992" height="68" width="68">
    <path d="M16.43 11.943c-.079-.026-.132-.026-.238-.053.027-.211.08-.45 0-.688-.211.397-.45.741-.767 1.085.159.185.318.344.476.53-.45.132-.873.29-1.322.423.052.344.132.687.185 1.031-.424-.052-.82-.079-1.244-.132-.026.238.027.45 0 .688-.29-.08-.582-.159-.9-.265.054.344.106.635.186.98a1.33 1.33 0 0 1-.344-.133l-.318-.159-.317-.158c-.159.238-.291.45-.45.714-.291-.37-.556-.74-.847-1.111h-.026l-.08 1.64h-.026l-.556-.635c-.052.265-.105.503-.158.741l-.344-.344-.37-.37a5.746 5.746 0 0 1-.186.635c-.344-.212-.688-.397-1.032-.582-.211.238-.45.476-.661.714-.185-.238-.37-.503-.582-.74-.212.237-.424.475-.662.713-.185-.317-.37-.608-.555-.926-.424.186-.82.397-1.244.583 0-.08 0-.16.027-.239a8.951 8.951 0 0 1 .74-2.196c.424-.873 1.112-1.375 2.09-1.56.265-.054.503-.08.768-.107v-.026a1.501 1.501 0 0 1-.37-.9c-.053-.423.026-1.084.185-1.481.132.053.29.106.423.159-.026.158-.08.29-.106.423-.053.317-.106.635-.053.952 0 .053.027.106.027.133.106.397.37.635.793.661.239.027.477 0 .715-.053.397-.08.794-.185 1.138-.423.132-.08.264-.185.344-.291.238-.265.317-.556.158-.9-.132-.29-.29-.555-.45-.846-.158-.291-.343-.556-.529-.847.106-.106.238-.185.37-.265l.054.053c.344.53.661 1.059.952 1.614.159.344.212.688.08 1.032a2.42 2.42 0 0 1-.186.37c.027-.026.08-.026.106-.052.318-.16.662-.291 1.006-.318h.529a6.26 6.26 0 0 0 1.72-.08c.396-.052.767-.158 1.164-.237.026 0 .053 0 .106-.027-.292.397-.556.794-.82 1.19.052.054.105.107.158.186.397-.423.688-.873.873-1.429h.238c.212.344.238 1.032.133 1.323zM5.477 5.593h-.238a6.647 6.647 0 0 1-.715-.106c-.529-.106-.979-.026-1.428.265a2.37 2.37 0 0 0-.503.397 2.367 2.367 0 0 1-.82.502c-.212.08-.344.106-.503.08.053-.132.08-.291.106-.424.053-.264.08-.529.132-.793a4.2 4.2 0 0 1 .185-.53c.053-.158.186-.264.37-.317.689-.185 1.324-.503 1.932-.9.291-.185.582-.423.9-.608.053.053.582 2.275.582 2.434zM15.637 4.852c-.106.027-.185 0-.265-.026-.264-.106-.45-.265-.635-.45-.08-.08-.158-.159-.238-.212a.543.543 0 0 0-.45-.132c-.37.053-.74.053-1.11-.026a3.695 3.695 0 0 0-1.615.132c-.397.106-.74.29-1.085.503-.105.053-.185.105-.29.158-.054.027-.107.027-.133.027-.08 0-.132-.027-.132-.106 0-.08.026-.132.053-.185a2.42 2.42 0 0 1 .185-.37c.264-.398.37-.82.476-1.27.053-.265.106-.53.159-.768.053-.026.08 0 .106.053.026.132.08.265.132.397.106.212.265.317.503.317.344.027.688-.026 1.032-.079.238-.026.502-.08.74-.132.212-.027.397 0 .582.08.318.158.583.37.82.608.424.423.82.9 1.165 1.402-.053.026-.027.053 0 .08zM1.852 7.445c-.026-.053 0-.08.027-.132.185-.159.37-.344.582-.503.29-.264.635-.397 1.031-.476.265-.053.556-.132.847-.159.37-.026.767 0 1.138.08.026 0 .053.026.08.052-.027.027-.027.053-.08.053-.106.053-.238.053-.344.106-.159.08-.318.133-.476.238a4.46 4.46 0 0 1-.741.318c-.662.185-1.323.317-1.985.423h-.079zM13.838 5.17c0 .106-.053.08-.106.08h-.53c-.634 0-1.27.026-1.904.131-.397.053-.82.106-1.217.16H10c-.053 0-.053-.054-.026-.08.026-.027.053-.027.053-.027.45-.211.926-.397 1.428-.502.318-.053.635-.053.926-.027.424.053.847.132 1.297.212.053 0 .106.026.159.053zM17.542 11.123c-.08 0-.159 0-.212.026 0-.026-.026-.026-.026-.053-.08-.344-.291-.582-.582-.767a2.846 2.846 0 0 0-.768-.344c-.45-.159-.9-.264-1.375-.37-.027 0-.053 0-.08-.027 0-.08.027-.158.027-.238.211.053.423.08.608.132.503.133 1.006.265 1.482.503.264.132.476.291.635.503.185.185.264.397.29.635zM15.584 6.334a.792.792 0 0 1-.212.106c-.026-.027-.053-.053-.053-.08-.105-.158-.211-.29-.317-.45-.159-.211-.37-.29-.609-.317h-.106c0-.08 0-.132-.026-.238.291-.026.556.026.794.212.211.264.37.502.529.767zM16.616 9.615v-.238a.65.65 0 0 1 .397.132c.185.106.344.212.476.37l.397.477c-.08.053-.132.105-.212.158-.026-.026-.053-.079-.08-.105-.158-.16-.29-.344-.449-.503a1.146 1.146 0 0 0-.53-.291z"/>
    <path d="M14.314 5.355c-.027-.08-.08-.132-.106-.212.185-.106.344-.158.556-.158a.694.694 0 0 1 .502.132c.106.08.239.132.37.212-.026.079-.026.158-.052.238a.92.92 0 0 1-.397-.186c-.212-.158-.423-.132-.661-.052-.08-.027-.133 0-.212.026zM.106 7.816A.792.792 0 0 0 0 7.604c.423-.318.873-.238 1.35-.132a.773.773 0 0 0-.054.238l-.608-.08c-.185-.026-.37.106-.582.186zM.185 8.265a1.15 1.15 0 0 1-.159-.185C.08 8.054.106 8 .16 8c.185-.105.397-.158.608-.184.159-.027.318-.027.45-.053.106 0 .159.026.159.106 0 .079-.053.132-.132.132-.106 0-.239.026-.344.026-.239.053-.503.106-.715.238z"/>
</svg>
