<svg width="51.498051" height="329.539062" xmlns="http://www.w3.org/2000/svg" xmlns:xlink="http://www.w3.org/1999/xlink" xmlns:svg="http://www.w3.org/2000/svg"><defs><symbol viewBox="0 0 24 24" id="amazon"><title>Amazon</title><path d="M.045 18.02c.072-.116.187-.124.348-.022 3.636 2.11 7.594 3.166 11.87 3.166 2.852 0 5.668-.533 8.447-1.595l.315-.14c.138-.06.234-.1.293-.13.226-.088.39-.046.525.13.12.174.09.336-.12.48-.256.19-.6.41-1.006.654-1.244.743-2.64 1.316-4.185 1.726a17.617 17.617 0 01-10.951-.577 17.88 17.88 0 01-5.43-3.35c-.1-.074-.151-.15-.151-.22 0-.047.021-.09.051-.13zm6.565-6.218c0-1.005.247-1.863.743-2.577.495-.71 1.17-1.25 2.04-1.615.796-.335 1.756-.575 2.912-.72.39-.046 1.033-.103 1.92-.174v-.37c0-.93-.105-1.558-.3-1.875-.302-.43-.78-.65-1.44-.65h-.182c-.48.046-.896.196-1.246.46-.35.27-.575.63-.675 1.096-.06.3-.206.465-.435.51l-2.52-.315c-.248-.06-.372-.18-.372-.39 0-.046.007-.09.022-.15.247-1.29.855-2.25 1.82-2.88.976-.616 2.1-.975 3.39-1.05h.54c1.65 0 2.957.434 3.888 1.29.135.15.27.3.405.48.12.165.224.314.283.45.075.134.15.33.195.57.06.254.105.42.135.51.03.104.062.3.076.615.01.313.02.493.02.553v5.28c0 .376.06.72.165 1.036.105.313.21.54.315.674l.51.674c.09.136.136.256.136.36 0 .12-.06.226-.18.314-1.2 1.05-1.86 1.62-1.963 1.71-.165.135-.375.15-.63.045a6.062 6.062 0 01-.526-.496l-.31-.347a9.391 9.391 0 01-.317-.42l-.3-.435c-.81.886-1.603 1.44-2.4 1.665-.494.15-1.093.227-1.83.227-1.11 0-2.04-.343-2.76-1.034-.72-.69-1.08-1.665-1.08-2.94l-.05-.076zm3.753-.438c0 .566.14 1.02.425 1.364.285.34.675.512 1.155.512.045 0 .106-.007.195-.02.09-.016.134-.023.166-.023.614-.16 1.08-.553 1.424-1.178.165-.28.285-.58.36-.91.09-.32.12-.59.135-.8.015-.195.015-.54.015-1.005v-.54c-.84 0-1.484.06-1.92.18-1.275.36-1.92 1.17-1.92 2.43l-.035-.02zm9.162 7.027c.03-.06.075-.11.132-.17.362-.243.714-.41 1.05-.5a8.094 8.094 0 011.612-.24c.14-.012.28 0 .41.03.65.06 1.05.168 1.172.33.063.09.099.228.099.39v.15c0 .51-.149 1.11-.424 1.8-.278.69-.664 1.248-1.156 1.68-.073.06-.14.09-.197.09-.03 0-.06 0-.09-.012-.09-.044-.107-.12-.064-.24.54-1.26.806-2.143.806-2.64 0-.15-.03-.27-.087-.344-.145-.166-.55-.257-1.224-.257-.243 0-.533.016-.87.046-.363.045-.7.09-1 .135-.09 0-.148-.014-.18-.044-.03-.03-.036-.047-.02-.077 0-.017.006-.03.02-.063v-.06z" /></symbol><symbol fill="none" viewBox="0 0 24 24" stroke-width="1.5" stroke="currentColor" id="chevron-left">
  <path stroke-linecap="round" stroke-linejoin="round" d="M15.75 19.5 8.25 12l7.5-7.5" />
</symbol><symbol fill="none" viewBox="0 0 24 24" stroke-width="1.5" stroke="currentColor" id="chevron-right">
  <path stroke-linecap="round" stroke-linejoin="round" d="m8.25 4.5 7.5 7.5-7.5 7.5" />
</symbol><symbol id="diakonie" viewBox="0 0 51.497858 51.541136"><defs id="diakonie_defs105"></defs><g id="diakonie_g114" transform="matrix(1.3333,0,0,-1.3333,-340.45844,292.37414)"><g id="diakonie_g112" clip-path="url(#diakonie_a)"><path id="diakonie_path110" transform="matrix(0.75004892,0,0,-0.75004892,10.491363,219.29048)" d="M 326.44531,0.00585938 V 23.632812 h 7.94727 c -1.5999,-1.805215 -2.54883,-4.187604 -2.54883,-6.662109 0,-5.982276 5.00899,-10.7617186 11.16992,-10.7617186 2.66516,0 5.09286,0.8792845 7.05274,2.3671875 V 0.00585938 Z m 27.87696,0 V 8.5761719 c 1.95453,-1.487903 4.40624,-2.3671875 7.05273,-2.3671875 6.1636,0 11.14258,4.7794426 11.14258,10.7617186 0,2.474505 -0.92005,4.856894 -2.47461,6.662109 h 7.89648 V 0.00585938 Z M 343.01367,10.169922 c -3.88508,0 -7.08789,3.001216 -7.08789,6.792969 0,3.631763 3.20281,6.65625 7.08789,6.65625 h 7.05274 v -6.65625 c 0,-3.791753 -3.14899,-6.792969 -7.05274,-6.792969 z m 18.37695,0 c -3.87041,0 -7.0371,3.001216 -7.0371,6.792969 v 6.65625 h 7.0371 c 3.95041,0 7.06836,-3.024487 7.06836,-6.65625 0,-3.791753 -3.11795,-6.792969 -7.06836,-6.792969 z m -34.94531,17.748047 v 23.626953 h 23.6211 V 27.917969 Z m 27.87696,0 v 23.626953 h 23.62109 V 27.917969 Z" style="stroke-width:1.33324635" /></g></g></symbol><clipPath id="diakonie_a"><path id="diakonie_path102" d="M 0,230.287 H 737.008 V 0 H 0 Z" /></clipPath><symbol viewBox="0 0 24 24" id="facebook"><title>Facebook</title><path d="M9.101 23.691v-7.98H6.627v-3.667h2.474v-1.58c0-4.085 1.848-5.978 5.858-5.978.401 0 .955.042 1.468.103a8.68 8.68 0 0 1 1.141.195v3.325a8.623 8.623 0 0 0-.653-.036 26.805 26.805 0 0 0-.733-.009c-.707 0-1.259.096-1.675.309a1.686 1.686 0 0 0-.679.622c-.258.42-.374.995-.374 1.752v1.297h3.919l-.386 2.103-.287 1.564h-3.246v8.245C19.396 23.238 24 18.179 24 12.044c0-6.627-5.373-12-12-12s-12 5.373-12 12c0 5.628 3.874 10.35 9.101 11.647Z" /></symbol><symbol viewBox="0 0 20 20" fill="currentColor" id="heart">
  <path d="m9.653 16.915-.005-.003-.019-.01a20.759 20.759 0 0 1-1.162-.682 22.045 22.045 0 0 1-2.582-1.9C4.045 12.733 2 10.352 2 7.5a4.5 4.5 0 0 1 8-2.828A4.5 4.5 0 0 1 18 7.5c0 2.852-2.044 5.233-3.885 6.82a22.049 22.049 0 0 1-3.744 2.582l-.019.01-.005.003h-.002a.739.739 0 0 1-.69.001l-.002-.001Z" />
</symbol><symbol fill="none" viewBox="0 0 24 24" stroke-width="1.5" stroke="currentColor" id="home">
  <path stroke-linecap="round" stroke-linejoin="round" d="m2.25 12 8.954-8.955c.44-.439 1.152-.439 1.591 0L21.75 12M4.5 9.75v10.125c0 .621.504 1.125 1.125 1.125H9.75v-4.875c0-.621.504-1.125 1.125-1.125h2.25c.621 0 1.125.504 1.125 1.125V21h4.125c.621 0 1.125-.504 1.125-1.125V9.75M8.25 21h8.25" />
</symbol><symbol viewBox="0 0 24 24" id="instagram"><title>Instagram</title><path d="M12 0C8.74 0 8.333.015 7.053.072 5.775.132 4.905.333 4.14.63c-.789.306-1.459.717-2.126 1.384S.935 3.35.63 4.14C.333 4.905.131 5.775.072 7.053.012 8.333 0 8.74 0 12s.015 3.667.072 4.947c.06 1.277.261 2.148.558 2.913.306.788.717 1.459 1.384 2.126.667.666 1.336 1.079 2.126 1.384.766.296 1.636.499 2.913.558C8.333 23.988 8.74 24 12 24s3.667-.015 4.947-.072c1.277-.06 2.148-.262 2.913-.558.788-.306 1.459-.718 2.126-1.384.666-.667 1.079-1.335 1.384-2.126.296-.765.499-1.636.558-2.913.06-1.28.072-1.687.072-4.947s-.015-3.667-.072-4.947c-.06-1.277-.262-2.149-.558-2.913-.306-.789-.718-1.459-1.384-2.126C21.319 1.347 20.651.935 19.86.63c-.765-.297-1.636-.499-2.913-.558C15.667.012 15.26 0 12 0zm0 2.16c3.203 0 3.585.016 4.85.071 1.17.055 1.805.249 2.227.415.562.217.96.477 1.382.896.419.42.679.819.896 1.381.164.422.36 1.057.413 2.227.057 1.266.07 1.646.07 4.85s-.015 3.585-.074 4.85c-.061 1.17-.256 1.805-.421 2.227-.224.562-.479.96-.899 1.382-.419.419-.824.679-1.38.896-.42.164-1.065.36-2.235.413-1.274.057-1.649.07-4.859.07-3.211 0-3.586-.015-4.859-.074-1.171-.061-1.816-.256-2.236-.421-.569-.224-.96-.479-1.379-.899-.421-.419-.69-.824-.9-1.38-.165-.42-.359-1.065-.42-2.235-.045-1.26-.061-1.649-.061-4.844 0-3.196.016-3.586.061-4.861.061-1.17.255-1.814.42-2.234.21-.57.479-.96.9-1.381.419-.419.81-.689 1.379-.898.42-.166 1.051-.361 2.221-.421 1.275-.045 1.65-.06 4.859-.06l.045.03zm0 3.678c-3.405 0-6.162 2.76-6.162 6.162 0 3.405 2.76 6.162 6.162 6.162 3.405 0 6.162-2.76 6.162-6.162 0-3.405-2.76-6.162-6.162-6.162zM12 16c-2.21 0-4-1.79-4-4s1.79-4 4-4 4 1.79 4 4-1.79 4-4 4zm7.846-10.405c0 .795-.646 1.44-1.44 1.44-.795 0-1.44-.646-1.44-1.44 0-.794.646-1.439 1.44-1.439.793-.001 1.44.645 1.44 1.439z" /></symbol><symbol fill="none" viewBox="0 0 24 24" stroke-width="1.5" stroke="currentColor" id="magnifying-glass-plus">
  <path stroke-linecap="round" stroke-linejoin="round" d="m21 21-5.197-5.197m0 0A7.5 7.5 0 1 0 5.196 5.196a7.5 7.5 0 0 0 10.607 10.607ZM10.5 7.5v6m3-3h-6" />
</symbol></defs></svg>