<svg xmlns="http://www.w3.org/2000/svg" height="177.839" width="760.3" id="svg2868" xml:space="preserve" y="0" x="0" version="1.1">
  <style id="style1469" type="text/css">
    .st0{fill:#d7b10a;stroke:#d7b10a;stroke-width:2;stroke-miterlimit:10}.st1{fill:#3c3c3b}.st2{display:none}.st3{fill:#3c3c3b}.st3,.st4{display:inline}.st6,.st7{fill:#ffcf05}.st7{display:none}.st19{fill:#97d5f0}.st20{fill:none;stroke:#fff;stroke-width:4;stroke-linecap:round;stroke-miterlimit:10}.st30{fill:#575756}
  </style>
  <g transform="translate(-12.4 -27.661)" id="Sonne">
    <g id="Ebene_6">
      <g id="g1499">
        <path id="path1471" d="M70.4 80.4c.4.4.9.8 1.3 1.1-.3.4-.7.6-1.2.6-.7.1-1.3-.1-1.9-.3-1.4-.6-2.6-1.4-3.8-2.4-1.1-.9-2.2-1.9-3.3-2.8-1.6-1.4-3.4-2.6-5.4-3.5-2.3-1.1-4.8-1.5-7.4-1.3-2 .2-3.7-.5-5.3-1.8-1.7-1.5-2.9-3.4-3.9-5.4 0-.1 0-.1-.1-.3.5-.2 1-.5 1.6-.7.1.2.2.3.3.5.7 1.3 1.5 2.6 2.5 3.7.5.5 1 1 1.6 1.4.9.7 1.9 1 3.1.9 4.2-.4 8 .8 11.5 3.1 1.6 1 3 2.2 4.4 3.4 1.1.9 2.2 1.8 3.3 2.6.4.3.9.6 1.4.8.4.1.9.2 1.3.4z" class="st0"/>
        <path id="path1473" d="M74.1 40.1c.3.2.7.4 1 .6 0 .7 0 1.4-.1 2.1-.1 1.2-.2 2.3-.2 3.5-.1 3.6-.1 7.1.4 10.7.4 2.9 1.7 5.4 3.7 7.6 1.6 1.7 3.4 3.1 5.1 4.6.8.7 1.6 1.4 2.3 2.2.2.2.3.4.5.6-.5.4-.9.8-1.4 1.2l-.3-.3c-.9-.8-1.7-1.6-2.6-2.4-1.4-1.3-3-2.5-4.4-3.9-1.6-1.5-2.9-3.3-3.8-5.4-.6-1.5-1-3-1.2-4.6-.3-2.3-.4-4.7-.4-7 0-2.8.2-5.6.3-8.4v-.8c0-.3 0-.5.3-.7.5.1.7.2.8.4z" class="st0"/>
        <path id="path1475" d="M65.9 86.6c.1.5.1 1.1.2 1.7-.3 0-.7.1-1 .1-1.6.1-3.2.1-4.8.1h-3c-1.7-.1-3.3-.2-4.9-.6-2.6-.6-4.8-1.9-6.6-3.9l-1.5-1.5c-1-.9-2.2-1.3-3.6-1.4-1.5-.1-3 .1-4.4.6-1.2.4-2.3 1-3.5 1.7-.3-.5-.7-1-1-1.5.2-.1.3-.3.5-.4 2.1-1.3 4.4-2.2 6.9-2.3 2.7-.2 5 .5 6.9 2.5l1.3 1.3c1.6 1.7 3.6 2.7 5.9 3.2 1.9.4 3.8.5 5.7.5 2.3 0 4.6 0 6.9-.1z" class="st0"/>
        <path id="path1477" d="M66.3 49.3c.5.4 1 .7 1.4 1.1-.1.1-.1.2-.1.3-1.6 2.8-2.7 5.8-3.1 9-.2 1.8-.2 3.6.3 5.4.6 2.5 1.9 4.6 3.8 6.3 2.4 2.2 5.2 3.7 8.4 4.6.1 0 .2 0 .3.1 0 0 .1 0 .2.1-.1.5-.2 1.1-.3 1.7-.2 0-.4-.1-.6-.1-3.9-1.1-7.4-3-10.2-6.1-2.3-2.5-3.5-5.5-3.7-8.9-.2-3.1.4-6.1 1.5-9 .5-1.3 1.1-2.6 1.8-3.8-.1-.2.1-.4.3-.7z" class="st0"/>
        <path id="path1479" d="M103.8 35.6c.6.2 1.1.4 1.7.5 0 .1 0 .3-.1.4-.4 1.6-.5 3.3-.6 5-.1 2.9 0 5.7.2 8.6.3 3.5 1.3 6.8 3.3 9.8.9 1.3 1.9 2.6 3.2 3.6l.2.2c-.3.5-.6 1-1 1.6-.5-.4-1-.8-1.4-1.3-2.6-2.5-4.3-5.6-5.3-9-.5-1.7-.8-3.5-.9-5.3-.2-2.7-.3-5.3-.2-8 .1-1.8.2-3.6.6-5.3.2-.3.3-.5.3-.8z" class="st0"/>
        <path id="path1481" d="M129.9 39.5c.5.3 1 .6 1.5 1-.1.2-.2.4-.3.5-1.8 3.2-3.7 6.4-5.5 9.6-.5.9-.9 1.8-1.4 2.7-.9 1.8-1.2 3.7-1.1 5.7.1 2.4.4 4.7.6 7.1 0 .6.1 1.2.1 1.8-.6 0-1.2.1-1.8.1 0-.2-.1-.4-.1-.6-.1-1.6-.3-3.2-.4-4.7-.1-1.5-.2-3.1-.2-4.6 0-2.1.5-4 1.5-5.9 1.4-2.5 2.7-5.1 4.1-7.6.8-1.5 1.7-3 2.6-4.5.1-.2.3-.3.4-.6z" class="st0"/>
        <path id="path1483" d="M37.1 94.5c-.6-.2-1.1-.5-1.6-.7.3-.8.8-1.3 1.4-1.8 1.1-.8 2.3-1.3 3.6-1.4 2.6-.3 5.1.2 7.3 1.6.7.5 1.4.9 2.1 1.4.9.6 1.9 1.1 3 1.3.8.1 1.5.1 2.3 0 1.6-.3 3.2-.7 4.7-1.4.8-.4 1.2-.7 1.6-1.3.6-.1 1.2-.2 1.7-.3.2.4 0 .7-.1 1-.2.5-.5.9-1 1.3s-1 .7-1.6 1c-1.6.8-3.3 1.3-5 1.6-2.2.4-4.2 0-6.1-1.2-.9-.6-1.9-1.2-2.8-1.8-.9-.6-1.9-1-3-1.2-1.4-.3-2.9-.3-4.2.2-1 .3-1.8.8-2.3 1.7.1-.1.1-.1 0 0z" class="st0"/>
        <path id="path1485" d="M101.7 69.2h-1.8v-.6c-.1-3.8-.8-7.5-2.5-10.9-.3-.5-.6-1.1-.9-1.6-1.7-2.6-2.5-5.5-2.7-8.6-.1-1.6.1-3.2.4-4.8 0-.1.1-.2.1-.4.6.2 1.1.3 1.7.5-.1.9-.3 1.7-.3 2.5-.3 3.5.4 6.8 2.3 9.8 1.7 2.7 2.8 5.7 3.4 8.8.3 1.5.4 3.1.4 4.6-.1.1-.1.4-.1.7z" class="st0"/>
        <path id="path1487" d="M132.1 86c-.5-.4-1-.7-1.4-1.1.1-.2.2-.3.3-.4 1.7-2.3 3.5-4.5 5.6-6.5.2-.2.4-.5.7-.7.7-.7 1.1-1.6 1.3-2.5.1-.6.2-1.3.3-1.9.4-2 1.3-3.9 2.4-5.6.6-.9 1.2-1.9 1.9-2.8.2-.3.4-.6.5-.9.1-.3.2-.6.3-1 .5-.1 1.1-.3 1.6-.4.2.6.1 1.1-.1 1.6-.3.7-.7 1.4-1.1 2-.7 1.1-1.4 2.1-2.1 3.2-1 1.6-1.7 3.4-1.9 5.3l-.3 1.5c-.3 1.1-.9 2.1-1.7 2.9l-2.4 2.4c-1.3 1.4-2.5 3-3.7 4.5.1.2 0 .3-.2.4z" class="st0"/>
        <path id="path1489" d="M93.9 69.2c-.6.3-1 .5-1.5.8-.1 0-.1 0-.1-.1-.4-.7-.9-1.2-1.7-1.5-1.2-.6-2.1-1.6-2.7-2.7-1.6-2.7-2.8-5.5-3.2-8.6-.2-1.4-.2-2.8-.3-4.1-.1-1.6-.1-3.2-.3-4.8V48c.4-.1.9-.1 1.3-.2h.4c.1.6.1 1.1.2 1.6.1 1.4.1 2.7.1 4.1 0 4 1.1 7.6 3.1 11 .7 1.1 1.5 2 2.7 2.6.9.4 1.5 1.2 2 2.1z" class="st0"/>
        <path id="path1491" d="M128.8 77.7c-.5-.5-.8-.9-1.2-1.4.1-.1.2-.3.3-.4 1.3-1.4 1.9-3.1 2-4.9 0-.7 0-1.4-.2-2-.6-2.7 0-5.2 1.7-7.4 1.8-2.3 4.1-4 6.8-5.2 0 0 .1 0 .2-.1.2.5.4 1.1.7 1.6-.2.1-.3.2-.5.3-1.7.8-3.3 1.9-4.6 3.2-.8.8-1.5 1.6-2 2.6-.7 1.4-.9 2.9-.6 4.4.6 2.9.1 5.5-1.6 7.9-.2.5-.6 1-1 1.4z" class="st0"/>
        <path id="path1493" d="M112.8 43c.4.3.9.7 1.3 1-.2.3-.3.6-.5.8-.2.4-.3.9-.2 1.3.2.5.4 1.1.6 1.6.9 2.1 1.8 4.2 2.8 6.3.7 1.5.9 3 1 4.6.1 2.8-.3 5.6-.9 8.4 0 .2-.1.3-.2.5-.5-.2-1-.3-1.6-.5.1-.4.1-.7.2-1 .5-2.1.8-4.3.8-6.5s-.5-4.2-1.4-6.2c-.8-1.7-1.5-3.4-2.3-5.1-.4-.8-.7-1.6-.7-2.6-.1-.9.3-1.8 1.1-2.6z" class="st0"/>
        <path id="path1495" d="M57.7 101.2c.6.2 1.1.3 1.8.5l-.6.9c-.5.6-1.1 1-1.7 1.4-1.5.9-3.2 1.4-4.9 1.8-1.8.4-3.6.8-5.5.9-1.4.1-2.9 0-4.3-.4-.1 0-.1 0-.2-.1-.8-.2-1.4 0-1.9.6-.1.2-.2.3-.4.5-.5-.5-.9-.9-1.4-1.3 1-1.2 2.2-2 3.9-1.5 2.8.7 5.6.4 8.4-.2 1.4-.3 2.7-.6 4-1.2 1.1-.6 2.1-1.1 2.8-1.9z" class="st0"/>
        <path id="path1497" d="M75.2 41c0-.2 0-.4-.1-.7.3.2.3.5.1.7z" class="st0"/>
      </g>
      <g id="g1505">
        <ellipse id="ellipse1501" ry="41.9" rx="43.6" cy="113.7" cx="101.6" class="st1" transform="rotate(-21.89 101.543 113.65)"/>
        <path id="path1503" d="M140.9 93.7c2.6 5 4.5 10.5 5.4 16.2.9 5.7.9 11.8-.4 17.8-1.4 6-4.1 11.8-8 16.6-4 4.9-9 8.9-14.6 11.8-5.6 2.9-11.8 4.7-18.1 5.1-6.3.5-12.7-.4-18.6-2.3-5.9-2-11.5-5-16.1-9.3-4.6-4.2-8.1-9.4-10.4-15l-1.5-4.2-1.1-4.3c-.3-1.5-.5-2.9-.7-4.4l-.3-4.4c-.1-5.9.8-11.7 2.6-17.2s4.4-10.9 8-15.7c3.6-4.8 8.1-9.1 13.5-12.2 5.3-3.1 11.4-5 17.6-5.4 6.2-.4 12.5.7 18.1 3.1 5.6 2.4 10.6 5.9 14.7 10 3.9 4.1 7.3 8.8 9.9 13.8zm-1 .5c-2.5-4.9-6.3-9.2-10.9-12.1-4.6-3-9.8-4.7-14.9-5.4-5.1-.8-10.2-.7-15.2-.1-4.9.6-9.8 1.9-14.4 3.9s-9.2 4.5-13.1 8.1c-3.9 3.5-7.2 7.9-9.1 12.9-2 5-2.8 10.5-2.2 15.8.5 5.3 2.5 10.4 5.3 14.8 5.7 8.8 14.6 14.6 24.1 17.1 4.8 1.2 9.8 1.4 14.6.8 4.8-.6 9.6-2 13.9-4.1 4.4-2.1 8.4-5 11.9-8.4 3.5-3.5 6.7-7.4 9.1-12 2.4-4.6 4.1-9.7 4.4-15.2.2-5.6-1-11.2-3.5-16.1z" class="st1"/>
      </g>
      <g id="g1521">
        <path id="polygon1515" class="st1" d="m115.6 195.1 3.1-31.1-16 2.6z"/>
        <g id="g1519">
          <path id="path1517" d="M118.5 164.2c-1.7.6-3.1 1.1-4.5 1.7l-3.9 1.5c-2.4.9-4.6 1.5-7 1.9l2-3.8c1.1 2.4 1.8 4.9 2.4 7.5.6 2.6 1.3 5.1 2.5 7.5 1.1 2.4 2.5 4.6 4 6.8s2.9 4.4 4.2 6.7l-5.2.9c.1-2.4.1-4.8.3-7.1.2-2.3.6-4.7 1.1-7.1.5-2.4 1.2-5 1.9-7.7zm.4-.4c.3 2 .5 4.4.7 6.8.2 2.5.3 5.1.3 7.9 0 2.8-.1 5.6-.4 8.5-.3 2.9-.8 5.7-1.2 8.4l-1.6 10.1-3.5-9.2c-.9-2.4-1.6-5-2.3-7.5-.7-2.6-1.4-5.1-2.5-7.5-1-2.4-2.4-4.6-4-6.8s-3-4.3-4.1-6.7l-1.4-3.2 3.4-.5c3-.5 6.2-.7 9.1-.7 1.5 0 2.8.1 4.1.1 1.2 0 2.4.1 3.4.3z" class="st1"/>
        </g>
      </g>
      <g id="g1537">
        <path id="polygon1531" class="st1" d="m54.4 182.4 24.2-19.8-13.2-9.5z"/>
        <g id="g1535">
          <path id="path1533" d="M78.3 162.6c-1.6-.8-3-1.4-4.4-2l-3.8-1.7c-2.4-1.1-4.4-2.2-6.3-3.5l4.1-1.2c-.9 2.5-2.2 4.7-3.6 7s-2.7 4.6-3.6 7c-.9 2.4-1.5 5-2 7.6-.5 2.6-1 5.2-1.8 7.7l-4.3-3.1c1.8-1.7 3.5-3.3 5.3-4.8 1.8-1.5 3.7-2.9 5.8-4.2 2.1-1.3 4.3-2.7 6.8-4.1zm.6 0c-1.2 1.6-2.7 3.5-4.3 5.3-1.6 1.9-3.4 3.9-5.4 5.8-1.9 2-4 3.9-6.3 5.7-2.2 1.8-4.6 3.4-6.8 5.1l-8.3 6 4-9c1.1-2.4 2.4-4.7 3.7-7 1.3-2.3 2.6-4.6 3.5-7 1-2.4 1.5-5 1.9-7.6.4-2.6.9-5.2 1.9-7.7l1.3-3.3 2.8 2c2.5 1.8 4.9 3.9 6.9 5.9 1 1 2 2 2.8 3 .9 1 1.7 1.9 2.3 2.8z" class="st1"/>
        </g>
      </g>
      <g id="g1545">
        <path id="polygon1539" class="st1" d="m182.3 102.2-31.2-3.1 2.7 16z"/>
        <g id="g1543">
          <path id="path1541" d="M151.3 99.3c.6 1.7 1.1 3.1 1.7 4.5l1.5 3.9c.9 2.4 1.5 4.6 1.9 7l-3.8-2c2.4-1.1 4.9-1.8 7.5-2.4 2.6-.6 5.1-1.3 7.5-2.5 2.4-1.1 4.6-2.5 6.8-4s4.4-2.9 6.7-4.2l.9 5.2c-2.4-.1-4.8-.1-7.1-.3-2.3-.2-4.7-.6-7.1-1.1-2.4-.5-5-1.2-7.7-1.9zm-.4-.4c2-.3 4.4-.5 6.8-.7 2.5-.2 5.1-.3 7.9-.3 2.8 0 5.6.1 8.5.4 2.9.3 5.7.8 8.4 1.2l10.1 1.6-9.2 3.5c-2.4.9-5 1.6-7.5 2.3-2.6.7-5.1 1.4-7.5 2.5-2.4 1-4.6 2.4-6.8 4s-4.3 3-6.7 4.1l-3.2 1.4-.5-3.4c-.5-3-.7-6.2-.7-9.1 0-1.5.1-2.8.1-4.1.1-1.2.1-2.4.3-3.4z" class="st1"/>
        </g>
      </g>
      <g id="g1553">
        <path id="polygon1547" class="st1" d="m22.7 128.5 31.1 3.1-2.6-16z"/>
        <g id="g1551">
          <path id="path1549" d="M53.6 131.4c-.6-1.7-1.1-3.1-1.7-4.5l-1.5-3.9c-.9-2.4-1.5-4.6-1.9-7l3.8 2c-2.4 1.1-4.9 1.8-7.5 2.4-2.6.6-5.1 1.3-7.5 2.5-2.4 1.1-4.6 2.5-6.8 4s-4.4 2.9-6.7 4.2l-.9-5.2c2.4.1 4.8.1 7.1.3 2.3.2 4.7.6 7.1 1.1 2.4.5 5 1.2 7.7 1.9zm.5.4c-2 .3-4.4.5-6.8.7-2.5.2-5.1.3-7.9.3-2.8 0-5.6-.1-8.5-.4-2.9-.3-5.7-.8-8.4-1.2l-10.1-1.6 9.2-3.5c2.4-.9 5-1.6 7.5-2.3 2.6-.7 5.1-1.4 7.5-2.5 2.4-1 4.6-2.4 6.8-4s4.3-3 6.7-4.1l3.2-1.4.5 3.4c.5 3 .7 6.2.7 9.1 0 1.5-.1 2.8-.1 4.1-.1 1.2-.2 2.4-.3 3.4z" class="st1"/>
        </g>
      </g>
      <g id="g1561">
        <path id="polygon1555" class="st1" d="m169.5 163.4-19.8-24.2-9.5 13.2z"/>
        <g id="g1559">
          <path id="path1557" d="M149.7 139.5c-.8 1.6-1.4 3-2 4.4l-1.7 3.8c-1.1 2.4-2.2 4.4-3.5 6.3l-1.2-4.1c2.5.9 4.7 2.2 7 3.6s4.6 2.7 7 3.6c2.4.9 5 1.5 7.6 2 2.6.5 5.2 1 7.7 1.8l-3.1 4.3c-1.7-1.8-3.3-3.5-4.8-5.3-1.5-1.8-2.9-3.7-4.2-5.8-1.3-2.1-2.7-4.3-4.1-6.8zm0-.6c1.6 1.2 3.5 2.7 5.3 4.3 1.9 1.6 3.9 3.4 5.8 5.4 2 1.9 3.9 4 5.7 6.3 1.8 2.2 3.4 4.6 5.1 6.8l6 8.3-9-4c-2.4-1.1-4.7-2.4-7-3.7-2.3-1.3-4.6-2.6-7-3.5-2.4-1-5-1.5-7.6-1.9-2.6-.4-5.2-.9-7.7-1.9l-3.3-1.3 2-2.8c1.8-2.5 3.9-4.9 5.9-6.9 1-1 2-2 3-2.8 1.1-.9 2-1.7 2.8-2.3z" class="st1"/>
        </g>
      </g>
      <path id="path1569" d="M79.7 139.1c-15.5-17-14.4-43.3 2.6-58.8.7-.6 1-3.4 1.7-4-4.4 1.9-9 5.6-12.7 9.2-14.4 14.1-15.1 38.3-2.7 54.2 11.1 14.2 30 21 45.9 15-12.5 1.1-25.7-5.6-34.8-15.6z" class="st1"/>
      <path id="path1571" d="M127.3 92.6c1.6 2 3 4 4.2 6.2 2 3.5 3.3 7.2 4.1 10.9.5 2.3.8 4.7.9 7 .3 9.7-3.4 19-10.9 25.2-1.7 1.4-3.6 2.6-5.5 3.6" fill="#3c3c3b" stroke="#fff" stroke-width="5" stroke-linecap="round" stroke-linejoin="round" stroke-miterlimit="10"/>
    </g>
    <g id="g1578">
      <circle id="circle1574" r="39.9" cy="115.4" cx="102.5" class="st6"/>
      <path id="path1576" d="M133.7 89.8c3.3 4.1 6.1 8.7 8.2 13.7 2.1 5 3.4 10.5 3.5 16.2.1 5.7-1.2 11.5-3.8 16.7-2.6 5.2-6.5 9.8-11.1 13.2-4.7 3.4-10.1 5.6-15.6 6.7-5.5 1.1-11.1 1.2-16.4.5-5.4-.7-10.6-2.2-15.5-4.6-4.9-2.4-9.5-5.6-13.3-9.6-3.8-4-7.1-8.9-9.1-14.3s-2.8-11.3-2.4-17.1c.4-5.8 1.9-11.6 4.6-16.9 2.6-5.3 6.5-10 11.1-13.7 4.6-3.7 10-6.4 15.7-7.8 5.7-1.4 11.7-1.4 17.2-.2 5.6 1.2 10.7 3.6 15.2 6.6 4.4 2.8 8.3 6.5 11.7 10.6zm-.8.6c-3.3-4-7.6-7.1-12.3-9-4.7-1.9-9.8-2.6-14.6-2.4-4.8.2-9.5 1.3-13.7 2.9-4.3 1.6-8.3 3.9-11.7 6.8-3.5 2.9-6.4 6.4-8.6 10.4-2.3 3.9-3.8 8.3-4.4 12.9-.6 4.6-.3 9.3.7 13.9.3 1.1.6 2.3.9 3.4.4 1.1.8 2.2 1.2 3.4.5 1.1 1 2.2 1.6 3.3l1.9 3.1c2.7 4 6.4 7.6 10.7 10.1 4.3 2.5 9.2 4.1 14.2 4.4 5 .3 10-.7 14.5-2.6 4.5-1.9 8.4-4.7 11.9-7.9 3.4-3.2 6.3-6.9 8.6-10.9s4.1-8.4 5.3-13.1c1.1-4.7 1.4-9.8.4-14.8-1-5.1-3.3-9.9-6.6-13.9z" class="st6"/>
    </g>
    <path id="polygon1582" class="st6" d="m115.6 195.1 3.1-31.1-16 2.6z"/>
    <path id="polygon1586" class="st6" d="m54.4 182.4 24.2-19.8-13.2-9.5z"/>
    <path id="polygon1588" class="st6" d="m182.3 102.2-31.2-3.1 2.7 16z"/>
    <path id="polygon1590" class="st6" d="m22.7 128.5 31.1 3.1-2.6-16z"/>
    <path id="polygon1592" class="st6" d="m169.5 163.4-19.8-24.2-9.5 13.2z"/>
    <path id="path1596" d="M78.5 138.9c-16-17.2-14.8-44.1 2.8-60 .7-.6 1.1-3.5 1.8-4.1-4.5 1.9-9.3 5.7-13.1 9.4-14.9 14.4-15.7 39.1-2.9 55.3 11.4 14.4 31.2 22.7 47.6 16.6-12.9 1.2-26.8-7.1-36.2-17.2z" fill="#d7b10a"/>
  </g>
  <g transform="translate(-12.4 -27.661)" id="Mond_-_Wolke_-_Regenbogen">
    <g id="g1603">
      <path id="path1599" d="M718.1 115.7c-8.2-24.9 3.2-49.6 26.1-61.4-10.6-2.9-21.8-2.5-33.1-1.4-24.4 2.3-53.2 36.8-43.2 67.3 10.1 30.5 36.3 49 70.2 42.3 6.2-1.2 18.2-10.7 23.4-13.3-21.5-6-36.7-13-43.4-33.5z" class="st1"/>
      <path id="path1601" d="M717.6 115.9c-1.9-5.8-3-11.9-3.1-18.1-.1-6.2.8-12.5 2.9-18.5 1-3 2.4-6 3.9-8.8 1.6-2.8 3.5-5.5 5.6-7.9 4.2-5 9.5-9.1 15.2-12.1l.8 8.3c-8.9-2.3-18.5-2.4-28.3-2.2l-3.7.1c-1.1 0-2.2.1-3.3.3-2.2.3-4.5 1-6.7 1.8s-4.4 1.8-6.4 3c-2.1 1.2-4.1 2.5-6 4-7.6 6-13.7 14.2-17.2 23.2-.9 2.3-1.6 4.6-2.1 6.9-.5 2.4-.8 4.7-1 7.1-.2 4.8.4 9.5 1.8 13.9.4 1.1.7 2.2 1.2 3.3l.7 1.7.8 1.6c1 2.2 2.2 4.3 3.3 6.3 2.4 4.1 5.1 7.9 8.3 11.3 6.2 6.9 14.1 12.1 22.7 14.8 4.3 1.4 8.8 2.2 13.4 2.5 4.6.3 9.2.2 13.8-.5l1.7-.3.9-.1h.5c.7-.2 1.7-.5 2.6-1 2-.9 4-2.1 6.1-3.3l6.3-3.8c1.1-.7 2.2-1.3 3.3-1.9 1.1-.6 2.3-1.3 3.7-1.9l.8 7.9c-4.6-1.6-9.2-3.5-13.7-5.6-4.5-2.2-8.8-4.7-12.7-7.8-3.9-3.1-7.4-6.7-10.1-10.8-2.5-4.4-4.5-8.8-6-13.4zm1-.4c1.5 4.5 3.7 8.8 6.7 12.5 2.9 3.7 6.7 6.6 10.7 8.8 4.1 2.2 8.5 3.8 13 5.1 4.5 1.3 9.1 2.2 13.7 3.2l10 2.1-9.2 5.8c-.8.5-1.8 1.2-2.8 1.9l-3 2.2c-2 1.5-4.1 3-6.2 4.4-2.2 1.4-4.4 2.8-6.9 4.1-1.3.6-2.6 1.3-4.3 1.8-.2.1-.5.1-.7.2l-.3.1-.3.1-1 .2-2 .4c-5.3.9-10.7 1.2-16.1.9-2.7-.2-5.4-.6-8.1-1.1-2.7-.5-5.3-1.3-7.9-2.3-2.6-.9-5.1-2.1-7.5-3.3-2.4-1.3-4.7-2.7-6.9-4.3-4.4-3.2-8.4-7-11.7-11.1-3.4-4.2-6.2-8.7-8.4-13.5-.6-1.2-1.1-2.4-1.6-3.6-.4-1.2-.9-2.5-1.3-3.7l-.6-1.9-.5-1.9c-.4-1.2-.7-2.6-1-3.9-1.1-5.3-1.1-10.7-.3-15.9.4-2.6 1-5.1 1.7-7.6s1.6-4.9 2.7-7.3c4.2-9.4 10.3-17.8 17.8-24.9 3.8-3.5 7.9-6.7 12.6-9.2 2.4-1.3 4.8-2.3 7.5-3.1 1.3-.4 2.7-.7 4.1-1 1.3-.2 2.5-.4 3.8-.6 5-.7 10.2-1.2 15.5-1.1 5.3.1 10.6.7 15.8 2.2l11 3.2-10.1 5c-5 2.5-9.8 5.6-14 9.4-2.1 1.9-4.1 3.9-5.9 6.2-1.8 2.2-3.4 4.6-4.8 7.2-2.8 5.1-4.6 10.9-5.1 16.8-.8 5.7 0 11.8 1.9 17.5z" class="st1"/>
    </g>
    <path id="path1605" d="M361.1 135.7c8.1-16.3 14.1-22 25.2-31.6C404 88.7 425.4 89 443 100.8c12.6 8.4 13.5 13.3 20.6 27 1.1 0 22.4 0 22-1.3-7.6-20.1-14.9-36.2-31.2-52.4-11.5-11.4-25.9-17.5-38.8-18.4-12.9-1-23.2 4.4-34.2 12.5-19.4 14.1-33.7 30.9-45.9 68.6m59.9-64.9c5.6-2.5 11.4-4 17.4-4.2-6 .3-11.8 1.8-17.4 4.2zm45.9 4.1c2.7 1.8 5.4 3.8 8 6.1-2.7-2.3-5.3-4.3-8-6.1zm10.3 1.6c1 1 2 2 3 3.1-.9-.9-1.8-1.8-2.8-2.7-2.8-2.6-5.8-5.2-8.8-7.4 3 2 5.8 4.3 8.6 7z" fill="#3c3c3b" stroke="#3c3c3b" stroke-miterlimit="10"/>
    <g id="g1635" opacity=".87">
      <g id="g1609">
        <path id="path1607" d="M355.6 134.3c1.2-.1 2.3-.1 3.5-.2 7.6-13.9 16.5-24.9 26.7-33.2 16.2-13.3 35.3-13.4 50.9-3.7 11.2 6.8 19.6 19 25.7 30.4 1.3-.1 2.5-.2 3.8-.2-6.3-12.6-15.2-26.3-27.6-34.3-16.5-10.9-37-11.2-54.3 2.9-11.5 9.3-21.5 22-29.8 38.4.3-.1.7-.1 1.1-.1z" fill="#534193"/>
      </g>
      <g id="g1613">
        <path id="path1611" d="M355.6 134.3h.8c7-13.5 15.1-24.3 23.9-32.1 8.3-7.5 18-12.9 27.9-14.4 9.9-1.6 20.2.6 29.1 6.5 12 7.8 20.9 21.2 27.1 33.3 1.2-.1 2.5-.2 3.7-.2-6.4-13.2-15.7-28-28.7-36.9-9.5-6.6-20.4-9.3-31-7.8-10.6 1.4-20.9 6.9-29.7 14.8-10 8.8-19.2 21.4-26.9 37.2 1.2-.3 2.5-.4 3.8-.4z" fill="#1d71b8"/>
      </g>
      <g id="g1617">
        <path id="path1615" d="M353.4 134.4c7.6-15.3 16.6-27.4 26.3-35.9 8.5-7.5 18.3-12.8 28.5-14.2 10.1-1.5 20.5.9 29.6 6.9 12.9 8.5 22.3 23.3 28.6 36.1 1.2-.1 2.4-.1 3.7-.2 0-.1-.1-.2-.1-.3-6.5-13.8-16.2-29.8-30-39.4-9.7-6.8-20.8-9.6-31.5-8.3-10.8 1.3-21.2 6.8-30.2 14.6-10.9 9.4-21 23.3-29.3 41 1.5-.1 2.9-.2 4.4-.3z" fill="#36a9e1"/>
      </g>
      <g id="g1621">
        <path id="path1619" d="M350.1 134.6c8.6-18.1 19-32.2 30.4-41.5 8.7-7.2 18.8-12.2 29.2-13.3 10.3-1.1 20.9 1.7 30.1 8.1 13.1 9.1 22.6 24.4 28.9 37.6.2.5.5 1 .7 1.6 1-.1 2-.1 3-.2h.6c-.2-.6-.5-1.1-.8-1.7-6.5-14.2-16.3-30.7-30.2-41-9.7-7.2-21-10.5-32-9.5-11 .9-21.7 6-31 13.6-12.6 10.2-24.1 26-33.3 46.6 1.5-.1 2.9-.2 4.4-.3z" fill="#2fac66"/>
      </g>
      <g id="g1625">
        <path id="path1623" d="M347.1 134.8c9.5-21.3 21.4-37.4 34.4-47.4 9-7 19.3-11.7 29.9-12.3 10.5-.7 21.3 2.6 30.6 9.5 13.2 9.9 22.8 25.8 29.2 39.7.4.9.8 1.8 1.2 2.8h.1c1.1-.1 2.3-.1 3.4-.2-.4-.9-.7-1.8-1.1-2.7-6.5-14.8-16.1-32.3-30.2-43.4-9.9-7.8-20-12.3-33-11.4-11.2.8-22 5.7-31.5 13-14.3 10.9-27.3 28.8-37.3 52.7 1.4-.1 2.8-.2 4.3-.3z" fill="#ffed00"/>
      </g>
      <g id="g1629">
        <path id="path1627" d="M344.4 134.9c10.3-25.1 23.8-43.6 38.6-54.4 9.2-6.8 19.8-11.1 30.5-11.3 10.7-.2 21.6 3.8 31 11.5 13.4 10.9 22.9 28 29.3 42.7.5 1.1 1 2.3 1.4 3.4 1.2-.1 2.3-.1 3.5-.2l-1.2-3c-6.5-15.8-16.4-34.2-30.6-46.4-10-8.6-21.6-15.3-33-15.3-11.4-.1-22.6 6.4-32.4 13.5-16 11.6-30.6 31.9-41.5 59.8 1.5-.1 3-.2 4.4-.3z" fill="#fec700"/>
      </g>
      <g id="g1633">
        <path id="path1631" d="M338.4 135.4c.1-.1.1-.1.2-.1 1.1-.1 2.3-.1 3.4-.2 11-29 25.9-49.8 42.2-61.2 9.4-6.7 20.2-10.7 31.1-10.4 10.9.3 21.9 4.9 31.4 13.4 13.5 12 23.1 30.2 29.5 45.9l1.5 3.9c1.1-.1 2.3-.1 3.4-.2-.4-1.1-.8-2.2-1.2-3.2-6.5-16.8-16.4-36.5-30.8-49.9-10.1-9.4-21.8-14.7-33.4-15.3-11.6-.7-23 3.4-32.9 10.4-17.6 12.2-33.6 35-45.2 67 .4-.1.6-.1.8-.1z" fill="#e94e1b"/>
      </g>
    </g>
    <g id="g1641">
      <path id="path1637" d="M307.4 100.8c.1-2.2.5-4.1 0-6.4-2.7-12.9-13.3-22.1-25.3-19.7-1.7.3-3.3.9-4.8 1.6-5.9-6.9-14.5-10.4-23-8.7-12.5 2.6-20.5 15.7-18.8 30.2-1.1-.1-2.2 0-3.4.2-5.3 1.1-9.2 5.3-10.8 10.7-3.5-3.5-8.3-5.3-13-4.3-7.7 1.6-12.5 9.8-11.3 18.7l-3.1.6c-6.7 1.4-10.9 8.7-9.3 16.3 1.6 7.6 8.3 12.7 15 11.3l57-11.7 55.7-11.5c6.7-1.4 8.9-10.7 7.3-18.3-1.2-6.6-6.2-11.5-12.2-9z" fill="#ededed"/>
      <path id="path1639" d="M307.3 101c-.1-.1-.1-.4-.1-.6v-2.6c0-1-.1-1.9-.3-2.8-.4-1.8-1.1-3.7-1.9-5.4-1.6-3.5-3.9-6.6-6.7-9-2.8-2.4-6.2-4-9.8-4.4-3.5-.4-7.2.3-10.4 1.9l-1.3.7-1-1.1c-3.4-3.7-7.7-6.5-12.5-7.7-4.7-1.1-9.8-.4-14.1 2-2.1 1.2-4 2.7-5.7 4.6-1.6 1.8-3 4-4 6.2-2.1 4.6-3 9.8-2.6 14.9l.2 1.8-1.7-.2c-2.9-.3-5.8.6-8.1 2.3-1.2.9-2.2 2-3.1 3.2-.8 1.3-1.5 2.6-2 4.1l-.5 1.5-1.1-1.1c-2.1-2.2-4.8-3.8-7.8-4.3s-6.1.1-8.6 1.8-4.4 4.2-5.4 7.1c-1 2.9-1.3 6-.8 9l.2.9-.9.2-3 .7c-.9.2-1.8.6-2.6 1-1.6.9-3 2.3-3.9 3.9-1.9 3.2-2.2 7.3-1.1 10.8 1.1 3.6 3.6 6.6 6.8 8.1 1.6.7 3.3 1 5 .8.2 0 .4 0 .6-.1l.7-.1 1.5-.3 3-.7 24.3-5.3 12.2-2.6 12.2-2.5c8.1-1.7 16.3-3.2 24.4-4.9 8.2-1.5 16.3-3.1 24.5-4.6l6.1-1.1 3.1-.5c1.1-.2 1.8-.3 2.6-.6 1.5-.7 2.7-2 3.5-3.6.8-1.6 1.4-3.5 1.7-5.4.3-1.9.3-3.9 0-5.9-.2-2-.7-3.9-1.6-5.6-.9-1.7-2.2-3.3-3.9-4.1-.9-.4-1.8-.7-2.8-.7-.5 0-1 0-1.5.1-.2 0-.5.1-.7.2l-.5.1c-.3-.1-.5-.1-.6-.1zm.3-.4.2-.2s.1 0 .1-.1l.2-.1c.2-.1.5-.2.8-.3.5-.1 1.1-.3 1.6-.3 1.1-.1 2.2.1 3.3.5 2.1.8 3.8 2.5 5 4.3 1.2 1.9 2 4 2.4 6.1.4 2.1.6 4.3.4 6.5-.2 2.2-.6 4.4-1.6 6.5-.9 2.1-2.5 4.1-4.8 5.3-.6.3-1.2.5-1.8.7-.7.2-1.1.3-1.6.4l-3 .7-6.1 1.4c-8.1 1.9-16.2 3.7-24.3 5.5-8.1 1.7-16.2 3.6-24.4 5.2l-12.2 2.5-12.2 2.4-24.5 4.7-3.1.6-1.5.3c-.2 0-.5.1-.9.1-.3.1-.6.1-.9.1-2.5.2-5-.3-7.1-1.4-4.3-2.2-7.2-6.4-8.3-10.8-1.1-4.4-.4-9.3 2.2-13.1 1.3-1.9 3-3.5 5.1-4.5 1-.5 2.1-.9 3.2-1.1l3.1-.6-.8 1.1c-.3-3.3 0-6.7 1.3-9.8 1.3-3.1 3.3-5.9 6.2-7.7 2.8-1.8 6.3-2.6 9.7-2.1 3.4.5 6.4 2.2 8.9 4.5l-1.5.4c.9-3.2 2.6-6.4 5.3-8.6 1.3-1.1 2.9-2.1 4.5-2.6 1.7-.6 3.5-.9 5.2-.8l-1.5 1.6c-.8-5.6-.3-11.4 1.8-16.8 1-2.7 2.5-5.2 4.4-7.5 1.9-2.3 4.1-4.2 6.7-5.7 2.6-1.5 5.5-2.4 8.4-2.8 3-.4 6-.2 8.8.5 2.9.7 5.6 1.9 8 3.5 2.4 1.6 4.6 3.6 6.4 5.8l-2.3-.5c3.9-1.8 8.3-2.5 12.6-1.7 4.3.7 8.1 2.9 11.1 5.8s5.2 6.5 6.6 10.3c.7 1.9 1.2 3.9 1.4 5.9.1 1 .1 2.1 0 3.1-.1.5-.1 1-.2 1.5l-.1.7-.1.3c0 .2-.1.2-.1.3z" class="st1"/>
    </g>
    <path id="path1643" d="M307.1 101.2c.1-2.1 0-5.2-.4-7.4-2.5-12.1-14.1-19.9-25.8-17.5-1.7.3-3.2.9-4.7 1.6-5.7-6.4-14-9.7-22.3-8-12.2 2.5-20 14.9-18.5 28.4-1.1-.1-2.2 0-3.3.2-5.1 1.1-9 5-10.5 10.1-3.4-3.3-8-4.9-12.6-3.9-7.5 1.5-12.3 9.3-11.2 17.6l-3 .6c-6.5 1.3-10.6 8.2-9.1 15.4 1.5 7.1 8 11.8 14.5 10.5l109.7-22.6c6.5-1.3 10.6-8.2 9.1-15.4-1.2-6.2-4.3-12-11.9-9.6z" class="st19"/>
    <path id="path1645" d="M474.4 73c.6-1.7.9-3.6.9-5.5.1-10.8-9.2-19.6-20.8-19.7-1.6 0-3.2.1-4.7.5" class="st20"/>
    <path id="path1647" d="M264.3 76.5c-1.4-.5-2.9-.8-4.4-.9-8.8-.5-16.3 6.7-16.9 15.9-.1 1.3 0 2.6.2 3.8" class="st20"/>
    <g id="g1651">
      <path id="path1649" d="m313.1 120.3-108.5 22.3c-6.5 1.3-12.5-1.4-13.4-6v0c-.8-3.9 0-11.6 0-11.6-5.8 3.2-5.9 9.5-4.7 15.5v0c1.3 6.1 7.5 9.9 14 8.6L309 126.8c7.4-1.1 9-6 9.3-9.7 0-.4.3-1-.1-.4-.9 1-1.8 2.7-5.1 3.6z" fill="#17b7ec" stroke="#17b7ec" stroke-linecap="round" stroke-linejoin="round" stroke-miterlimit="10"/>
    </g>
    <g id="g1657">
      <path id="path1653" d="M713.9 114.1c-5.9-22.8 4.2-46 23.3-57.7-8.5-2.4-17.8-2.6-27-.2-27.9 7.2-44.7 35.7-37.4 63.6 7.2 27.9 35.7 44.7 63.6 37.4 5.1-1.3 9.8-3.4 14.1-6-17.4-4.7-31.8-18.4-36.6-37.1z" class="st6"/>
      <path id="path1655" d="M713.4 114.2c-1.4-5.4-2.1-11-2.1-16.7 0-5.7.8-11.4 2.4-17 1.7-5.6 4.3-11 7.9-15.8 3.6-4.8 8.1-8.9 13.2-12.1l1.1 8.2c-7.6-2.1-15.6-2.6-23.6-1.5-.5.1-1 .1-1.5.2l-1.5.3-3 .7c-1 .3-1.9.6-2.9.9l-1.5.5-.7.2-.7.3c-1.8.9-3.8 1.7-5.5 2.8-.9.5-1.8 1-2.6 1.6l-2.5 1.9c-6.6 5.1-11.3 12.5-14.1 20.3-2.7 7.9-2.9 16.5-1.3 24.4 1.7 8 5.4 15.2 10.1 21.5.5.8 1.3 1.5 1.9 2.2.7.7 1.3 1.5 2 2.2l2.2 2c.4.3.7.7 1.1 1l1.2.9 2.3 1.8 2.5 1.5 1.2.8c.4.2.9.4 1.3.7l2.6 1.3c7.1 3.1 14.9 4.5 22.6 4.3 3.8-.3 7.7-.8 11.5-1.8 3.7-1 7.4-2.5 10.9-4.3l1.1 8.1c-1.2-.4-2.3-.9-3.5-1.3l-3.3-1.6c-1.1-.6-2.1-1.2-3.2-1.8-1-.7-2-1.3-3-2-3.9-2.8-7.5-6.2-10.5-9.9-5.7-7.4-9.8-15.9-12.1-24.8zm1-.3c1.2 4.4 3 8.5 5.4 12.3 2.4 3.8 5.4 7.1 8.8 9.9 3.4 2.8 7.1 5.1 11 6.9 3.9 1.8 8 3 12.1 3.9l9.9 2.1-8.7 6.1c-3.8 2.7-8.1 4.8-12.6 6.3-2.2.8-4.5 1.3-6.9 1.8-.6.1-1.2.3-1.7.4l-1.8.2-3.5.4c-9.5.6-19.1-1.4-27.6-5.6l-3.1-1.7-1.5-.9-1.5-1-2.9-2-2.7-2.3-1.3-1.1-1.2-1.2-2.5-2.5c-.8-.9-1.5-1.8-2.2-2.7-.7-.9-1.5-1.8-2.1-2.8-5.3-7.7-8.5-16.8-9.1-25.9l-.1-3.4c0-.6-.1-1.1 0-1.7l.1-1.7.2-3.4c.2-1.1.3-2.2.5-3.3.2-2.2.9-4.4 1.4-6.6.1-.5.3-1.1.5-1.6l.5-1.6.5-1.6.3-.8.3-.8c.9-2 1.7-4.1 2.9-6l.8-1.5c.3-.5.5-1 .8-1.4l1.8-2.8c.6-1 1.3-1.8 2-2.7l2.1-2.6 2.3-2.4 1.1-1.2 1.2-1.1c6.4-6.1 14.3-11.1 23.1-13.8 4.4-1.3 9-2.1 13.7-2.2 4.7-.1 9.4.5 13.9 1.8l10 2.8-8.9 5.3c-4.3 2.6-8.4 5.8-12 9.5-3.6 3.7-6.8 7.9-9.3 12.6-2.5 4.7-4.3 9.9-5 15.3-.8 5.4-.4 11 1 16.3z" class="st6"/>
    </g>
    <path id="path1659" d="M684.7 125.7c-8.8-29.9 7.5-62.1 36.4-72 1.1-.4 2.9-2.5 4-2.8-6.2-.1-13.5.7-19.9 3.2-25.1 9.5-41 40.6-35.3 67.4 5.1 23.9 26.3 40.8 48.4 42.2-15.4-5.6-28.4-20.4-33.6-38z" fill="#d7b10a" stroke="#d7b10a" stroke-linecap="round" stroke-linejoin="round" stroke-miterlimit="10"/>
    <path id="path1661" d="M738.1 149.9c-19.5-7.1-32-19.2-32.1-41.7" fill="none" stroke="#feffff" stroke-width="5" stroke-linecap="round" stroke-miterlimit="10"/>
    <path id="path1663" d="M300.4 99.3c.2-1.4.3-2.9.1-4.4-1.1-8.4-9.3-14.3-18.3-13.1-1.3.2-2.5.5-3.6.9" fill="none" stroke="#fff" stroke-width="3" stroke-linecap="round" stroke-miterlimit="10"/>
  </g>
  <g transform="translate(-12.4 -27.661)" id="Schnee">
    <path id="path1666" d="M579.9 44.5c-2.3-3.7-2.8-9.2-6.9-11.1-2.8-1.3-8.8 1-8.3 4 1.1 7 7.8 12.2 11.8 18.3l-6.6 21.9c-5.2-5.9-10.4-11.9-15.6-17.8 1-7 4.9-14.1 2.9-20.9-.9-2.9-7.3-3-9.4-.8-2.9 3.1-1 8.4-1.5 12.6-3.2-3.6-4.8-9.4-9.5-10.8-3-.9-7.5 2.7-7.1 5.7.6 4.5 6.2 7.1 9.3 10.6-4.3-.3-9.2-3-12.8-.9-2.6 1.5-3.7 7.6-.9 9 6.5 3.2 14.5.8 21.8 1.2 5.3 6.1 10.7 12.1 16 18.2-7.9 1.5-15.8 2.9-23.6 4.4-6-4.3-10.7-11.2-17.9-12.9-3.1-.7-6 4.7-4.9 7.5 1.6 4 7.3 5 10.9 7.6-4.7.9-10.7-.6-14.1 2.6-2.2 2.1-.9 7.7 2 8.9 4.4 1.8 9.3-1.7 13.9-2.6-2.2 3.5-7 6.3-6.6 10.4.2 3 5.3 6.9 7.9 5.2 5.9-4 7.3-11.9 10.9-17.8 8-1.5 15.9-3 23.9-4.4l-6.7 22.1c-6.7 2.9-15.2 3.4-20 8.7-2 2.2 1.6 7.5 4.7 7.9 4.4.7 7.9-3.6 11.9-5.4-1.3 4.4-5.4 8.8-4 13.2.9 2.9 6.6 4.6 9 2.7 3.6-2.9 2.6-8.7 4-13 2.2 3.6 2.6 9 6.5 10.8 2.9 1.3 8.7-1 8.3-4-.9-6.9-7.6-12.1-11.3-18.2l6.4-21.2c5 5.7 10.1 11.5 15.1 17.2-.9 6.9-4.7 14-2.6 20.7.9 2.9 7.3 3 9.4.8 2.8-3 .8-8.1 1.3-12.2 3.1 3.5 4.7 9.3 9.3 10.6 3 .9 7.6-2.7 7.1-5.7-.7-4.6-6.3-7.2-9.5-10.8 4.4.3 9.5 3 13.3.8 2.7-1.5 3.7-7.6.9-9-6.7-3.1-14.8-.6-22.1-1-5.3-6-10.5-12-15.8-18 8-1.5 15.9-3 23.9-4.4 6 4.2 10.8 10.9 17.9 12.5 3.1.7 6-4.7 4.9-7.6-1.5-3.9-7.1-4.8-10.6-7.2 4.6-.9 10.6.6 13.9-2.6 2.2-2.1.9-7.7-2-8.9-4.5-1.8-9.4 1.7-14.2 2.6 2.3-3.6 7-6.6 6.7-10.8-.2-3-5.4-7-7.9-5.2-5.9 4.1-7.2 12.2-10.8 18.2-7.9 1.5-15.7 2.9-23.6 4.4 2.3-7.5 4.5-14.9 6.8-22.4 6.5-2.9 14.9-3.6 19.5-8.8 2-2.3-1.6-7.5-4.7-8-4.2-.7-7.6 3.6-11.4 5.4 1.3-4.3 5.4-8.6 4-13-1-2.1-7.2-4.5-9.4-2.2-3.1 3.2-2.8 9.5-3.8 12.9zm0 0" fill="#3c3c3b" stroke="#3c3c3b" stroke-width="6" stroke-miterlimit="10"/>
    <g id="g1674">
      <path id="path1668" d="M580 45.1c-2.1-3.6-2.6-9-6.3-10.8-2.7-1.3-8.3 1.1-7.9 4.1.9 6.9 7.2 11.9 10.9 17.8-2.2 7.2-4.4 14.4-6.5 21.6-4.8-5.8-9.7-11.5-14.5-17.3 1-6.9 4.8-13.9 3-20.6-.8-2.9-6.9-2.9-8.8-.6-2.8 3.1-1.1 8.3-1.6 12.5-2.9-3.5-4.4-9.2-8.8-10.5-2.8-.9-7.1 2.8-6.8 5.7.5 4.4 5.8 6.9 8.6 10.3-4-.2-8.6-2.9-12.1-.7-2.5 1.6-3.6 7.5-.9 8.8 6.1 3 13.7.6 20.5.9 5 5.9 9.9 11.8 14.9 17.7-7.5 1.5-14.9 3.1-22.4 4.6-5.6-4.1-10-10.9-16.8-12.4-2.9-.7-5.8 4.7-4.8 7.5 1.4 3.9 6.8 4.9 10.2 7.3-4.5.9-10.1-.4-13.4 2.8-2.1 2.1-1 7.6 1.8 8.7 4.2 1.7 8.8-1.8 13.2-2.7-2.1 3.4-6.7 6.3-6.4 10.3.2 3 4.9 6.7 7.4 5 5.6-4 7-11.8 10.5-17.6 7.5-1.6 15.1-3.1 22.6-4.7l-6.6 21.8c-6.3 2.9-14.3 3.6-18.9 8.8-2 2.2 1.4 7.3 4.3 7.8 4.1.6 7.5-3.7 11.3-5.5-1.3 4.4-5.2 8.7-4 13.1.8 2.8 6.2 4.5 8.5 2.6 3.4-2.9 2.6-8.6 3.9-12.9 2 3.5 2.3 8.8 5.9 10.6 2.7 1.3 8.2-1.1 7.9-4.1-.8-6.8-7-11.8-10.5-17.7l6.3-20.9c4.7 5.6 9.4 11.2 14 16.7-.9 6.8-4.6 13.8-2.7 20.4.8 2.8 6.9 2.8 8.8.6 2.7-3 .9-8 1.4-12 2.9 3.4 4.4 9 8.7 10.3 2.8.8 7.2-2.8 6.8-5.7-.6-4.5-5.9-7-8.8-10.5 4.2.2 9 2.8 12.5.6 2.5-1.5 3.6-7.6.9-8.8-6.3-3-13.9-.4-20.9-.7-4.9-5.8-9.8-11.6-14.7-17.5 7.5-1.6 15.1-3.1 22.6-4.7 5.6 4 10 10.6 16.7 12 2.9.6 5.7-4.7 4.7-7.5-1.4-3.8-6.6-4.6-10-6.9 4.4-.9 10 .4 13.2-2.7 2.1-2.1 1-7.6-1.8-8.7-4.2-1.7-8.9 1.8-13.4 2.8 2.2-3.6 6.7-6.6 6.5-10.7-.2-3-5-6.8-7.3-5-5.6 4.1-7 12.1-10.5 18.1-7.4 1.5-14.9 3.1-22.3 4.6 2.2-7.4 4.5-14.7 6.7-22.1 6.2-3 14.1-3.7 18.5-8.9 1.9-2.3-1.4-7.3-4.3-7.8-4-.6-7.2 3.6-10.8 5.5 1.3-4.3 5.2-8.6 3.9-12.9-1-2-6.8-4.4-8.9-2.1-2.4 2.7-2.2 9-3.2 12.3zm0 0" class="st19"/>
      <g id="g1672">
        <path id="path1670" d="M580 45.2c-.1-.2-.3-.4-.5-.7l-.3-.6c-.2-.4-.4-.8-.6-1.3l-1-2.6c-.7-1.7-1.4-3.4-2.7-4.6-.6-.6-1.4-1.1-2.2-1.2-.8-.1-1.7 0-2.6.2-.8.2-1.7.6-2.4 1.1-.7.5-1.3 1.1-1.5 1.9l-.1.3v.3c0 .2 0 .4.1.6.1.4.2.9.3 1.3.1.4.3.9.4 1.3.2.4.3.8.5 1.2.8 1.6 1.8 3.1 2.9 4.6 2.2 2.9 4.7 5.6 6.7 8.8l.1.2-.1.3-6.4 21.6-.4 1.4-1-1.1L554.9 61l-.3-.3.1-.4c.5-3.8 1.8-7.3 2.6-10.8.4-1.7.7-3.5.8-5.2V43c0-.4-.1-.9-.1-1.3s-.1-.8-.2-1.2c0-.2-.1-.4-.1-.5 0-.1-.1-.2-.2-.3-.3-.4-1-.7-1.8-.9-.8-.1-1.6-.1-2.4 0-.8.1-1.5.4-2.1.7-.5.3-.9 1-1.2 1.6-.6 1.4-.6 3.1-.5 4.9.1 1.8.3 3.7 0 5.7l-.3 2.7-1.8-2.1c-2.2-2.6-3.3-5.6-5.2-7.9-.9-1.1-2-1.9-3.2-2.2-.9-.2-2.3.3-3.3 1.2-1 .8-1.8 2.1-1.8 3 0 .2.1.5.1.8l.3.9c.3.6.7 1.1 1.1 1.7 1.8 2.2 4.6 3.8 6.9 6.4l2 2.3-3-.2c-2-.1-3.8-.7-5.5-1.1-1.7-.4-3.4-.7-4.7-.3-.3.1-.7.2-.9.4-.3.2-.5.3-.7.6-.4.5-.8 1.2-1 1.9-.2.7-.3 1.5-.3 2.2 0 .7.2 1.4.5 1.7l.2.2h.1l.1.1.3.1c.4.2.7.3 1.1.4l1.2.3c.4.1.8.2 1.2.2 1.7.2 3.4.2 5.1.2 3.5-.2 7.1-.7 10.9-.6h.6l.4.4 14.7 18 1.4 1.6-2.1.4-22.4 4.6-.5.1-.4-.3c-3.1-2.3-5.5-5.1-8.2-7.5-1.3-1.2-2.7-2.3-4.2-3.2-.4-.2-.7-.4-1.1-.6-.4-.2-.8-.4-1.2-.5-.4-.2-.8-.3-1.2-.4-.2-.1-.4-.1-.5-.1h-.4c-.5.1-1.1.5-1.6 1.1-.5.6-.9 1.3-1.2 2.1-.3.7-.4 1.5-.4 2.2 0 .6.4 1.3.9 1.9.9 1.2 2.5 2.1 4.1 2.9 1.6.8 3.3 1.5 5 2.7l1.8 1.3-2.2.4c-3.3.6-6.5.2-9.4.8-1.4.3-2.8.8-3.7 1.8-.8.8-.9 2.4-.7 3.8.3 1.4.9 2.8 2 3.4.2.2.6.2.9.4.3.1.7.2 1 .2.7.1 1.4 0 2.1-.2 2.9-.6 5.7-2.2 8.9-2.9l1.6-.3-.9 1.4c-1 1.6-2.4 2.9-3.5 4.2-1.2 1.3-2.3 2.7-2.7 4.3-.1.4-.1.8-.1 1.2 0 .4.1.7.2 1.1.3.7.8 1.4 1.4 2 .6.6 1.3 1.1 2 1.5.7.4 1.6.6 2.2.4l.3-.1.2-.1c.1 0 .3-.2.5-.3.3-.3.7-.5 1-.8l.9-.9c.3-.3.6-.7.8-1 1.1-1.4 1.9-3 2.7-4.6 1.5-3.2 2.8-6.6 4.7-9.8l.1-.2h.2l22.6-4.6.7-.2-.2.7-6.6 21.8-.1.2-.2.1c-3.4 1.6-7 2.4-10.4 3.7-1.7.6-3.4 1.3-4.9 2.2-.4.2-.8.5-1.1.7-.4.2-.7.5-1 .8-.3.3-.6.6-1 .9-.1.2-.3.3-.4.5 0 .1-.1.1-.1.2l-.1.3c-.2.7-.1 1.5.2 2.3.3.8.8 1.5 1.4 2.2.6.6 1.2 1.2 2 1.5.7.3 1.6.3 2.4.2 1.7-.3 3.2-1.3 4.6-2.4 1.5-1.1 2.9-2.2 4.7-3.1l1.3-.7-.4 1.4c-1 3.1-2.8 5.8-3.7 8.6-.5 1.4-.6 2.9-.1 4.2.4 1.1 1.8 2 3.1 2.4 1.3.4 2.9.5 3.9-.2.2-.1.5-.4.7-.6.2-.3.5-.5.6-.8.4-.6.6-1.3.9-2 .9-2.8.7-6 1.6-9.3l.5-1.9 1 1.7c1 1.7 1.5 3.5 2.1 5.1.6 1.6 1.3 3.3 2.4 4.3.3.2.6.5.9.6.3.2.6.2 1 .3.7.1 1.5 0 2.3-.2.8-.2 1.5-.6 2.1-1 .6-.4 1.1-1 1.3-1.6v-.4c0-.1 0-.4-.1-.6-.1-.4-.1-.8-.3-1.2-.1-.4-.2-.8-.4-1.2-.1-.4-.3-.8-.5-1.2-.7-1.6-1.7-3-2.7-4.4-2.1-2.9-4.5-5.6-6.5-8.8l-.2-.4.1-.5 6.2-20.9.6-2.1 1.4 1.6 14.1 16.7.4.4-.1.6c-.5 3.8-1.7 7.2-2.4 10.7-.4 1.7-.7 3.4-.7 5.1v1.2c0 .4.1.8.1 1.2 0 .4.1.8.2 1.2l.1.3V132.9l.1.1c.2.3.8.6 1.5.8.7.1 1.5.2 2.2.1.7-.1 1.5-.3 2-.6.1-.1.3-.2.4-.3l.3-.3c.2-.3.4-.5.5-.8.6-1.2.6-2.9.5-4.6-.1-1.7-.3-3.6-.1-5.6l.3-3.4 2.2 2.6c2.2 2.7 3.4 5.7 5.2 7.8.5.5.9 1 1.4 1.3.2.2.5.3.8.5.3.1.6.2.8.2.8.1 2.2-.4 3.1-1.3 1-.8 1.7-2 1.6-2.8-.1-1.1-.7-2.3-1.6-3.3-1.8-2.1-4.6-3.8-6.9-6.4l-2.3-2.7 3.6.2c2.1.1 3.9.6 5.7 1 1.7.4 3.4.6 4.8.3.7-.2 1.3-.5 1.6-.8.4-.4.8-1.1 1-1.8.2-.7.4-1.5.3-2.2 0-.7-.2-1.4-.4-1.6 0-.1-1-.5-1.7-.8l-1.2-.3c-.4-.1-.8-.2-1.2-.2-1.7-.2-3.4-.2-5.2-.1-3.6.2-7.2.8-11.1.7h-.7l-.5-.5-14.7-17.5-1.7-2 2.6-.5 22.6-4.7.7-.1.5.4c3.1 2.3 5.6 5 8.2 7.3 1.3 1.2 2.7 2.2 4.1 3 .4.2.7.4 1.1.6.4.2.7.3 1.1.5.4.2.8.3 1.1.4l.3.1h.4c.3 0 .9-.4 1.3-.9.5-.5.8-1.2 1.1-1.9.3-.7.4-1.4.4-2 0-.1 0-.3-.1-.4 0-.1 0-.2-.1-.4-.1-.3-.3-.6-.5-.8-.8-1.1-2.3-1.9-3.8-2.6-1.6-.8-3.3-1.4-5-2.6l-3-2 3.6-.7c3.4-.7 6.6-.2 9.4-.8.7-.1 1.3-.3 1.9-.6.3-.1.5-.3.8-.5.2-.2.5-.4.6-.5.5-.7.7-2.1.4-3.3-.2-1.2-1-2.5-1.7-2.8-1-.5-2.4-.5-3.7-.2-2.8.6-5.6 2.2-8.9 2.9l-3.1.7 1.7-2.7c1.1-1.7 2.4-3.1 3.6-4.5 1.2-1.3 2.2-2.7 2.6-4.1.2-.7.2-1.4 0-2-.2-.6-.6-1.3-1.2-1.8-.5-.6-1.2-1.1-1.8-1.4-.6-.3-1.4-.5-1.8-.4-.1 0-.2 0-.3.1-.1 0-.3.2-.4.3-.3.3-.7.5-.9.8l-.9.9c-.3.3-.5.6-.8 1-1 1.4-1.9 2.9-2.6 4.6-1.5 3.2-2.7 6.8-4.7 10.1l-.3.5-.5.1-22.3 4.5-1.7.3.5-1.7 6.8-22 .1-.4.3-.2c3.4-1.6 6.9-2.5 10.3-3.7 1.7-.6 3.3-1.3 4.8-2.2.4-.2.7-.5 1.1-.7.4-.2.7-.5 1-.8l.9-.9.4-.4.1-.2.1-.2c.2-.6.1-1.4-.2-2.2-.3-.8-.7-1.5-1.2-2.1-.5-.6-1.2-1.2-1.9-1.5-.4-.2-.7-.3-1.1-.3-.4-.1-.8 0-1.2 0-1.6.2-3.1 1.2-4.5 2.2-1.4 1-2.9 2.2-4.6 3.1l-1.1.6.4-1.2c.7-2.3 2-4.2 2.9-6.3.5-1 .9-2.1 1.1-3.1.2-1.1.3-2.2 0-3.2v.1c-.4-.7-1.2-1.3-2-1.7-.8-.4-1.7-.8-2.6-1-.9-.2-1.9-.2-2.7.1-.9.2-1.4 1-1.9 1.8-.9 1.7-1.3 3.6-1.7 5.5l-.5 2.9c-.1.5-.2 1-.3 1.4l-.2.7c.4-.2.2.1.1.3zm0-.3v-.6l.1-.7c.1-.5.2-1 .2-1.4l.4-2.9c.3-1.9.7-3.9 1.6-5.7l.4-.6c.1-.2.3-.4.5-.6.2-.2.4-.4.6-.5.2-.1.5-.3.7-.4 1-.4 2.1-.3 3-.1 1 .2 1.9.5 2.8 1 .9.5 1.8 1 2.3 2 .4 1.2.3 2.4.1 3.6-.2 1.2-.7 2.3-1.1 3.3-.9 2.1-2.1 4.1-2.7 6.2l-.7-.6c1.5-.8 2.9-2 4.3-3.1 1.5-1.1 3-2.2 5-2.6.5-.1 1-.1 1.5 0 .5 0 1.1.2 1.5.4.9.5 1.7 1.1 2.3 1.8.6.7 1.2 1.6 1.5 2.5.3.9.6 2 .2 3.1-.1.1-.1.3-.2.4l-.2.4c-.2.3-.3.4-.5.6-.3.4-.6.7-1 1-.3.3-.7.6-1.1.9-.4.3-.8.6-1.2.8-1.6 1-3.3 1.7-5 2.4-3.4 1.3-6.9 2.2-10.1 3.7l.5-.5-6.3 22.3-1.2-1.3 22.3-4.8-.8.6c1.7-3.1 2.9-6.5 4.5-9.9.8-1.7 1.7-3.4 2.8-5l.9-1.2c.3-.4.7-.7 1-1.1.3-.4.7-.7 1.1-1 .3-.3 1-.8 1.7-.9 1.4-.3 2.5.1 3.5.6s1.8 1.1 2.5 1.9c.7.8 1.4 1.7 1.8 2.8.2.5.3 1.3.3 1.8 0 .3 0 .6-.1.8 0 .3-.1.6-.2.8-.6 2.2-1.9 3.7-3.1 5.2-1.2 1.4-2.4 2.7-3.3 4.1l-1.4-2c2.8-.6 5.5-2.2 8.9-3 1.7-.4 3.6-.5 5.5.4 1.1.5 1.8 1.3 2.3 2.1.5.8.8 1.7 1 2.6.2.9.3 1.8.2 2.8-.1 1-.4 2-1.1 2.9-.4.5-.7.8-1.1 1.1-.4.3-.8.6-1.2.8-.8.5-1.7.7-2.6.9-1.7.4-3.4.4-4.9.5-1.6.1-3.1.1-4.4.4l.5-2.7c1.3.9 2.9 1.5 4.6 2.3.8.4 1.7.8 2.6 1.4.9.5 1.7 1.2 2.4 2.2.3.5.6 1 .8 1.5.1.2.2.6.3.9.1.3.1.6.1.9 0 1.2-.2 2.2-.6 3.2-.4 1-.9 1.9-1.6 2.8-.7.8-1.7 1.7-3.2 1.9-.4.1-.7.1-1.1 0h-.5l-.4-.1c-.5-.1-1-.3-1.4-.4-.5-.2-.9-.4-1.4-.6-.5-.2-.9-.4-1.3-.7-1.7-1-3.2-2.2-4.6-3.4-2.8-2.4-5.3-5.1-8-7.1l1.2.3-22.5 4.7.9-2.5 14.7 17.5-1.2-.6c3.5.1 7.1-.5 10.8-.7 1.9-.1 3.8-.1 5.8.2.5.1 1 .1 1.5.3.5.1 1 .2 1.5.4.5.1 1 .3 1.4.5.4.1 1.2.5 1.7 1.1 1 1.2 1.2 2.5 1.2 3.6s-.2 2.2-.5 3.2c-.4 1-.8 2-1.7 3-.4.4-1 .9-1.5 1.1-.3.1-.5.3-.8.3-.3.1-.5.2-.8.2-2.3.5-4.3.1-6.1-.3-1.8-.4-3.6-.9-5.2-1l1.2-2.5c.9 1.1 2 2 3.2 3.1 1.2 1 2.5 2.1 3.6 3.4 1.1 1.3 2.1 3 2.3 5.1.1 1.2-.3 2.2-.8 3.1-.5.8-1.1 1.6-1.8 2.2-.7.6-1.5 1.1-2.4 1.5-.9.4-1.9.6-3.1.4-.6-.1-1-.3-1.5-.5-.4-.2-.9-.4-1.2-.7-.8-.5-1.4-1.2-2-1.9-1.1-1.4-1.9-2.8-2.7-4.1-.8-1.4-1.5-2.7-2.4-3.7l2.5-.8c-.2 1.6 0 3.3.1 5.2.1 1.8.2 3.9-.8 6-.2.5-.5 1-.9 1.4-.2.2-.4.4-.6.7-.2.2-.5.4-.7.5-1 .6-2.1.8-3.1 1-1 .1-2.1.1-3.2-.1-1-.2-2.2-.7-3.1-1.8-.1-.1-.2-.3-.3-.4-.1-.2-.2-.3-.2-.5l-.1-.3v-.2l-.1-.4-.3-1.5c-.1-.5-.1-1-.1-1.5v-1.5c.1-1.9.4-3.8.8-5.6.8-3.6 2-7 2.5-10.4l.3 1-14-16.8 2-.4-6.4 20.8-.1-.8c1.8 3 4.2 5.7 6.3 8.7 1.1 1.5 2.1 3.1 2.9 4.8.2.4.4.9.5 1.3.2.4.3.9.4 1.4.1.5.2.9.3 1.4 0 .3.1.4.1.8v.5c0 .2-.1.3-.1.5-.3 1.2-1.2 2-2 2.6-.8.6-1.8 1-2.7 1.3-1 .3-2 .4-3 .3-.5-.1-1.1-.2-1.6-.5-.5-.2-.9-.6-1.3-.9-1.6-1.4-2.2-3.3-2.9-5-.6-1.7-1.1-3.4-1.9-4.9l1.5-.2c-.9 2.8-.7 6-1.7 9.2-.3.8-.6 1.6-1.1 2.3-.5.7-1 1.4-1.8 1.9s-1.8.7-2.6.7c-.9 0-1.7-.1-2.5-.4-.8-.3-1.6-.6-2.3-1.2-.7-.5-1.3-1.2-1.7-2.1-.6-1.7-.4-3.5.2-5.1 1-3.1 2.9-5.7 3.8-8.6l.9.7c-1.6.8-3 1.9-4.5 3-1.5 1-3.1 2.1-5.1 2.5-1 .1-2 .2-3-.3-.9-.4-1.7-1.1-2.4-1.8-.6-.7-1.2-1.6-1.5-2.5-.3-.9-.6-2-.2-3.1.1-.5.6-1 .9-1.3l1-1c.4-.3.7-.6 1.1-.9.4-.3.8-.5 1.2-.8 1.6-1 3.4-1.7 5.1-2.3 3.5-1.2 7.1-2.1 10.4-3.6l-.3.3 6.7-21.8.5.6-22.6 4.7.3-.2c-1.8 3.1-3 6.5-4.6 9.8-.8 1.6-1.7 3.3-2.8 4.8-.3.4-.6.7-.9 1.1-.3.4-.6.7-1 1-.3.3-.7.6-1.1.9-.2.1-.3.3-.6.4l-.4.2-.4.1c-1.1.3-2.1 0-3-.5-.9-.4-1.7-1-2.3-1.7-.7-.7-1.3-1.5-1.6-2.4-.2-.5-.3-1-.3-1.5s0-1 .1-1.5c.5-2 1.7-3.5 2.9-4.8 1.2-1.4 2.5-2.7 3.3-4.1l.7 1c-2.9.6-5.7 2.3-8.9 3-.8.2-1.7.3-2.5.2-.9-.1-1.7-.2-2.6-.7-.9-.5-1.5-1.2-1.9-2-.4-.8-.7-1.6-.9-2.4-.2-.8-.2-1.7-.1-2.6.1-.9.4-1.8 1.1-2.6 1.3-1.4 3-2.1 4.6-2.4 3.3-.6 6.5-.3 9.3-.9l-.4 1.7c-1.4-1-3.1-1.7-4.7-2.5-1.7-.8-3.5-1.7-4.8-3.4-.6-.8-1.2-1.8-1.3-3-.1-1.1.1-2.2.5-3.1.4-1 .8-1.9 1.5-2.7.7-.8 1.5-1.6 2.9-1.9.6-.2 1.4 0 1.8.1.5.1 1 .3 1.4.4.5.2.9.4 1.4.6.4.2.9.4 1.3.7 1.7 1 3.2 2.2 4.6 3.4 2.8 2.5 5.3 5.2 8.1 7.3l-1-.2 22.4-4.7-.7 2.1L547.7 67l1 .5c-3.4-.1-7 .4-10.7.6-1.8.1-3.7.1-5.7-.2-.5-.1-1-.1-1.4-.3-.5-.1-.9-.2-1.4-.4-.5-.1-.9-.3-1.4-.5l-.3-.2-.2-.1-.2-.1c-.3-.2-.6-.4-.8-.7-.9-1.1-1.2-2.3-1.2-3.3 0-1.1.1-2.1.4-3.1.3-1 .8-2 1.5-2.8l.6-.6c.2-.2.5-.4.8-.5.5-.3 1-.5 1.6-.6 2.2-.6 4.2-.1 6 .3 1.8.4 3.5.9 5.1 1l-1 2.1c-.9-1.1-2.1-2.1-3.3-3.1-1.2-1-2.5-2.1-3.6-3.4-.5-.7-1.1-1.4-1.4-2.3-.2-.4-.3-.9-.5-1.3-.1-.5-.2-.9-.2-1.5 0-1.1.4-2 .9-2.8.5-.8 1.1-1.5 1.8-2 .7-.6 1.5-1 2.4-1.4.9-.3 1.9-.5 3-.3 1.9.5 3.4 1.7 4.4 3.1 2.1 2.7 3.3 5.7 5.1 7.9l-2 .6c.2-1.6 0-3.4 0-5.3-.1-1.9-.1-3.9.7-5.9.4-1 1.1-1.9 2.1-2.6 1-.6 2-.9 3-1.1 1-.1 2.1-.1 3.1.1s2.2.6 3 1.7c.4.5.7 1.3.7 1.7l.3 1.5c.1.5.1 1 .1 1.5v1.5c-.1 1.9-.4 3.8-.9 5.6-.9 3.6-2.1 7.1-2.7 10.6l-.2-.7 14.4 17.4-1.4.3L576 56l.1.5c-1.8-3.1-4.3-5.8-6.5-8.8-1.1-1.5-2.1-3.1-2.9-4.8-.2-.4-.4-.9-.5-1.3-.2-.4-.3-.9-.4-1.4-.1-.5-.2-.9-.3-1.4-.1-.4-.2-1 0-1.5.3-1.1 1.1-1.8 1.9-2.3.8-.5 1.7-.9 2.6-1.2.9-.2 1.9-.3 2.9-.2 1 .2 1.8.8 2.5 1.4 1.4 1.4 2.1 3.2 2.7 4.9l.9 2.6c.2.4.3.9.5 1.3l.3.6c.1.2.1.3.2.5z" fill="#1291d0"/>
      </g>
    </g>
  </g>
  <g transform="translate(-12.4 -27.661)" id="Gesicht">
    <g id="g2734">
      <path id="path2712" d="M132.6 131.7c-.3-.1-.5-.1-.9-.2.1-.8.3-1.7 0-2.6-.8 1.5-1.7 2.8-2.9 4.1.6.7 1.2 1.3 1.8 2-1.7.5-3.3 1.1-5 1.6.2 1.3.5 2.6.7 3.9-1.6-.2-3.1-.3-4.7-.5-.1.9.1 1.7 0 2.6-1.1-.3-2.2-.6-3.4-1 .2 1.3.4 2.4.7 3.7-.5-.1-.9-.3-1.3-.5l-1.2-.6-1.2-.6c-.6.9-1.1 1.7-1.7 2.7-1.1-1.4-2.1-2.8-3.2-4.2h-.1c-.1 2.1-.2 4.1-.3 6.2h-.1l-2.1-2.4c-.2 1-.4 1.9-.6 2.8l-1.3-1.3-1.4-1.4c-.2.8-.4 1.6-.7 2.4-1.3-.8-2.6-1.5-3.9-2.2-.8.9-1.7 1.8-2.5 2.7-.7-.9-1.4-1.9-2.2-2.8-.8.9-1.6 1.8-2.5 2.7-.7-1.2-1.4-2.3-2.1-3.5-1.6.7-3.1 1.5-4.7 2.2 0-.3 0-.6.1-.9.6-2.9 1.5-5.7 2.8-8.3 1.6-3.3 4.2-5.2 7.9-5.9 1-.2 1.9-.3 2.9-.4v-.1c-.9-1-1.3-2.2-1.4-3.4-.2-1.6.1-4.1.7-5.6.5.2 1.1.4 1.6.6-.1.6-.3 1.1-.4 1.6-.2 1.2-.4 2.4-.2 3.6 0 .2.1.4.1.5.4 1.5 1.4 2.4 3 2.5.9.1 1.8 0 2.7-.2 1.5-.3 3-.7 4.3-1.6.5-.3 1-.7 1.3-1.1.9-1 1.2-2.1.6-3.4-.5-1.1-1.1-2.1-1.7-3.2-.6-1.1-1.3-2.1-2-3.2.4-.4.9-.7 1.4-1l.2.2c1.3 2 2.5 4 3.6 6.1.6 1.3.8 2.6.3 3.9-.2.5-.4.9-.7 1.4.1-.1.3-.1.4-.2 1.2-.6 2.5-1.1 3.8-1.2h2c2.2.2 4.3.1 6.5-.3 1.5-.2 2.9-.6 4.4-.9.1 0 .2 0 .4-.1-1.1 1.5-2.1 3-3.1 4.5.2.2.4.4.6.7 1.5-1.6 2.6-3.3 3.3-5.4h.9c.8 1.3.9 3.9.5 5z" class="st30"/>
      <path id="path2714" d="M91.2 107.7h-.9c-.9-.1-1.8-.2-2.7-.4-2-.4-3.7-.1-5.4 1-.7.4-1.3.9-1.9 1.5-.9.8-1.9 1.5-3.1 1.9-.8.3-1.3.4-1.9.3.2-.5.3-1.1.4-1.6.2-1 .3-2 .5-3 .2-.7.4-1.3.7-2 .2-.6.7-1 1.4-1.2 2.6-.7 5-1.9 7.3-3.4 1.1-.7 2.2-1.6 3.4-2.3.2.2 2.2 8.6 2.2 9.2z" class="st30"/>
      <path id="path2716" d="M129.6 104.9c-.4.1-.7 0-1-.1-1-.4-1.7-1-2.4-1.7-.3-.3-.6-.6-.9-.8-.5-.4-1-.6-1.7-.5-1.4.2-2.8.2-4.2-.1-2.1-.3-4.1-.1-6.1.5-1.5.4-2.8 1.1-4.1 1.9-.4.2-.7.4-1.1.6-.2.1-.4.1-.5.1-.3 0-.5-.1-.5-.4 0-.3.1-.5.2-.7.2-.5.4-.9.7-1.4 1-1.5 1.4-3.1 1.8-4.8.2-1 .4-2 .6-2.9.2-.1.3 0 .4.2.1.5.3 1 .5 1.5.4.8 1 1.2 1.9 1.2 1.3.1 2.6-.1 3.9-.3.9-.1 1.9-.3 2.8-.5.8-.1 1.5 0 2.2.3 1.2.6 2.2 1.4 3.1 2.3 1.6 1.6 3.1 3.4 4.4 5.3-.2.1-.1.2 0 .3z" class="st30"/>
      <path id="path2718" d="M77.5 114.7c-.1-.2 0-.3.1-.5.7-.6 1.4-1.3 2.2-1.9 1.1-1 2.4-1.5 3.9-1.8 1-.2 2.1-.5 3.2-.6 1.4-.1 2.9 0 4.3.3.1 0 .2.1.3.2-.1.1-.1.2-.3.2-.4.2-.9.2-1.3.4-.6.3-1.2.5-1.8.9-.9.5-1.9.9-2.8 1.2-2.5.7-5 1.2-7.5 1.6h-.3z" class="st30"/>
      <path id="path2720" d="M122.8 106.1c0 .4-.2.3-.4.3h-2c-2.4 0-4.8.1-7.2.5-1.5.2-3.1.4-4.6.6h-.3c-.2 0-.2-.2-.1-.3.1-.1.2-.1.2-.1 1.7-.8 3.5-1.5 5.4-1.9 1.2-.2 2.4-.2 3.5-.1 1.6.2 3.2.5 4.9.8.2 0 .4.1.6.2z" class="st30"/>
      <path id="path2722" d="M136.8 128.6c-.3 0-.6 0-.8.1 0-.1-.1-.1-.1-.2-.3-1.3-1.1-2.2-2.2-2.9-.9-.6-1.9-1-2.9-1.3-1.7-.6-3.4-1-5.2-1.4-.1 0-.2 0-.3-.1 0-.3.1-.6.1-.9.8.2 1.6.3 2.3.5 1.9.5 3.8 1 5.6 1.9 1 .5 1.8 1.1 2.4 1.9.7.7 1 1.5 1.1 2.4z" class="st30"/>
      <path id="path2724" d="M129.4 110.5c-.3.2-.5.3-.8.4-.1-.1-.2-.2-.2-.3-.4-.6-.8-1.1-1.2-1.7-.6-.8-1.4-1.1-2.3-1.2h-.4c0-.3 0-.5-.1-.9 1.1-.1 2.1.1 3 .8.8 1 1.4 1.9 2 2.9z" class="st30"/>
      <path id="path2726" d="M133.3 122.9v-.9c.6 0 1.1.2 1.5.5.7.4 1.3.8 1.8 1.4l1.5 1.8c-.3.2-.5.4-.8.6-.1-.1-.2-.3-.3-.4-.6-.6-1.1-1.3-1.7-1.9-.5-.5-1.2-.9-2-1.1z" class="st30"/>
      <path id="path2728" d="M124.6 106.8c-.1-.3-.3-.5-.4-.8.7-.4 1.3-.6 2.1-.6.7-.1 1.3.1 1.9.5.4.3.9.5 1.4.8-.1.3-.1.6-.2.9-.6-.1-1.1-.4-1.5-.7-.8-.6-1.6-.5-2.5-.2-.3-.1-.5 0-.8.1z" class="st30"/>
      <path id="path2730" d="M70.9 116.1c-.1-.3-.2-.5-.4-.8 1.6-1.2 3.3-.9 5.1-.5-.1.3-.2.6-.2.9-.8-.1-1.5-.2-2.3-.3-.7-.1-1.4.4-2.2.7z" class="st30"/>
      <path id="path2732" d="M71.2 117.8c-.2-.2-.4-.4-.6-.7.2-.1.3-.3.5-.3.7-.4 1.5-.6 2.3-.7.6-.1 1.2-.1 1.7-.2.4 0 .6.1.6.4 0 .3-.2.5-.5.5-.4 0-.9.1-1.3.1-.9.2-1.9.4-2.7.9z" class="st30"/>
    </g>
  </g>
</svg>
